<svg viewBox="-1 -6.5 290 80" xmlns="http://www.w3.org/2000/svg">
    <g transform="translate(-10 -6.4) scale(5)">
        <!-- flame -->
        <path fill="#ff7043" stroke="transparent" d="M 4,12 h6 v-2 h2 v-6 h-2 v-2 h-2 v-2 h-2 v4 h-2 v2 h-2 v4 h2 Z" />
        <!-- wood -->
        <path fill="#74573e" stroke="transparent" d="M 2,16 h4 v-2 h4 v2 h4 v-2 h-2 v-2 h-8 v2 h-2 Z" />
    </g>
    <g transform="translate(70 0)">
        <path fill="#FF7043" fill-rule="nonzero" d="M20.44 73.143V40.158h13.213V26.616H20.44V20.4h13.213V6.857H6.857v66.286H20.44zM53.398 20.49V6.857H39.765V20.49h13.633zm0 52.653V26.602H39.765v46.54h13.633zm19.695 0V40.148h13.213V26.602H59.51v46.54h13.583zm25.926-46.541h-6.602v46.54h33.378V59.545H105.99v-6.22h19.805V26.603H99.02zm13.143 19.745h-6.111v-6.112h6.111v6.112zm39.49 13.163h-6.112V40.235h6.111V59.51zm13.633-26.307v-6.587H145.48V6.857h-13.573v66.286h33.378v-39.94zm19.744-12.713V6.857h-13.633V20.49h13.633zm0 52.653V26.602h-13.633v46.54h13.633zm6.112 0h26.796V59.547h-13.213V40.155h13.213V26.613h-13.213V13.439h-13.583v59.704z" />
    </g>
</svg>