<?xml version="1.0" encoding="UTF-8"?>
<svg width="1280px" height="350px" viewBox="0 0 1280 350" version="1.1" xmlns="http://www.w3.org/2000/svg" xmlns:xlink="http://www.w3.org/1999/xlink">
    <title>logo-full</title>
    <g id="logo-full" stroke="none" stroke-width="1" fill="none" fill-rule="evenodd">
        <g id="Group" transform="translate(-6.000000, 19.000000)" fill-rule="nonzero">
            <path d="M381.426329,302 L381.426329,157.691574 L439.234043,157.691574 L439.234043,98.4467409 L381.426329,98.4467409 L381.426329,71.2448331 L439.234043,71.2448331 L439.234043,12 L350.903857,12 L322,12 L322,40.8155803 L322,302 L381.426329,302 Z M525.617021,71.6453901 L525.617021,12 L465.971631,12 L465.971631,71.6453901 L525.617021,71.6453901 Z M525.617021,302 L525.617021,98.3829787 L465.971631,98.3829787 L465.971631,302 L525.617021,302 Z M611.780939,302 L611.780939,157.64637 L669.588652,157.64637 L669.588652,98.3829787 L552.35461,98.3829787 L552.35461,302 L611.780939,302 Z M725.208434,98.3829787 L696.326241,98.3829787 L696.326241,127.207585 L696.326241,272.944797 L696.326241,302 L725.208434,302 L842.35461,302 L842.35461,242.506012 L755.70803,242.506012 L755.70803,215.295583 L842.35461,215.295583 L842.35461,127.207585 L842.35461,98.3829787 L813.472417,98.3829787 L725.208434,98.3829787 Z M782.70922,184.765957 L755.971631,184.765957 L755.971631,158.028369 L782.70922,158.028369 L782.70922,184.765957 Z M955.475177,242.35461 L928.737589,242.35461 L928.737589,158.028369 L955.475177,158.028369 L955.475177,242.35461 Z M1015.12057,127.262321 L1015.12057,98.4467409 L986.238374,98.4467409 L928.473988,98.4467409 L928.473988,12 L869.092199,12 L869.092199,302 L986.238374,302 L1015.12057,302 L1015.12057,272.953895 L1015.12057,127.262321 Z M1101.50355,71.6453901 L1101.50355,12 L1041.85816,12 L1041.85816,71.6453901 L1101.50355,71.6453901 Z M1101.50355,302 L1101.50355,98.3829787 L1041.85816,98.3829787 L1041.85816,302 L1101.50355,302 Z M1128.24113,302 L1157.14499,302 L1245.47518,302 L1245.47518,242.519802 L1187.66746,242.519802 L1187.66746,157.679831 L1245.47518,157.679831 L1245.47518,98.4301766 L1187.66746,98.4301766 L1187.66746,40.7943262 L1128.24113,40.7943262 L1128.24113,272.951531 L1128.24113,302 Z" id="firebit" fill="#FF7043"></path>
            <g id="firebit-logo-v1" transform="translate(48.291429, 11.625714)">
                <polygon id="Path" fill="#FF7043" points="36.1291429 216.417143 144.516571 216.417143 144.516571 180.347619 180.645714 180.347619 180.645714 72.1390476 144.516571 72.1390476 144.516571 36.0695238 108.387429 36.0695238 108.387429 0 72.2582857 0 72.2582857 72.1390476 36.1291429 72.1390476 36.1291429 108.208571 0 108.208571 0 180.347619 36.1291429 180.347619"></polygon>
                <polygon id="Path" fill="#BF5332" points="0 289.748571 72.1390476 289.748571 72.1390476 253.082857 144.278095 253.082857 144.278095 289.748571 216.417143 289.748571 216.417143 253.082857 180.347619 253.082857 180.347619 216.417143 36.0695238 216.417143 36.0695238 253.082857 0 253.082857"></polygon>
            </g>
        </g>
    </g>
</svg>