<svg viewBox="-1 -6.5 200 80" xmlns="http://www.w3.org/2000/svg">
    <!-- Logo -->
    <g transform="translate(-10 -6.4) scale(5)">
        <!-- flame -->
        <path fill="#ff7043" stroke="transparent" d="M 4,12 h6 v-2 h2 v-6 h-2 v-2 h-2 v-2 h-2 v4 h-2 v2 h-2 v4 h2 Z" />
        <!-- wood -->
        <path fill="#74573e" stroke="transparent" d="M 2,16 h4 v-2 h4 v2 h4 v-2 h-2 v-2 h-8 v2 h-2 Z" />
    </g>
    <g transform="translate(70 0)">
        <!-- 404 -->
        <g id="404" transform="translate(7 7) scale(0.2)" fill="#FF7043" fill-rule="nonzero">
            <polygon points="97.903481 197.975358 0 197.975358 0 0 67.096519 0 67.096519 130.763116 97.903481 130.763116 97.903481 0 165 0 165 329 97.903481 329" />
            <path d="M275.096519,261.526232 L305.903481,261.526232 L305.903481,67.2122417 L275.096519,67.2122417 L275.096519,261.526232 Z M208,329 L208,0 L373,0 L373,329 L208,329 Z" />
            <polygon points="513.903481 197.975358 416 197.975358 416 0 483.096519 0 483.096519 130.763116 513.903481 130.763116 513.903481 0 581 0 581 329 513.903481 329" />
        </g>
    </g>
</svg>