<?xml version="1.0" encoding="UTF-8"?>
<svg width="990px" height="350px" viewBox="0 0 990 350" version="1.1" xmlns="http://www.w3.org/2000/svg" xmlns:xlink="http://www.w3.org/1999/xlink">
    <title>logo-text</title>
    <g id="logo-text" stroke="none" stroke-width="1" fill="none" fill-rule="evenodd">
        <path d="M89.4263293,320 L89.4263293,175.691574 L147.234043,175.691574 L147.234043,116.446741 L89.4263293,116.446741 L89.4263293,89.2448331 L147.234043,89.2448331 L147.234043,30 L58.9038566,30 L30,30 L30,58.8155803 L30,320 L89.4263293,320 Z M233.617021,89.6453901 L233.617021,30 L173.971631,30 L173.971631,89.6453901 L233.617021,89.6453901 Z M233.617021,320 L233.617021,116.382979 L173.971631,116.382979 L173.971631,320 L233.617021,320 Z M319.780939,320 L319.780939,175.64637 L377.588652,175.64637 L377.588652,116.382979 L260.35461,116.382979 L260.35461,320 L319.780939,320 Z M433.208434,116.382979 L404.326241,116.382979 L404.326241,145.207585 L404.326241,290.944797 L404.326241,320 L433.208434,320 L550.35461,320 L550.35461,260.506012 L463.70803,260.506012 L463.70803,233.295583 L550.35461,233.295583 L550.35461,145.207585 L550.35461,116.382979 L521.472417,116.382979 L433.208434,116.382979 Z M490.70922,202.765957 L463.971631,202.765957 L463.971631,176.028369 L490.70922,176.028369 L490.70922,202.765957 Z M663.475177,260.35461 L636.737589,260.35461 L636.737589,176.028369 L663.475177,176.028369 L663.475177,260.35461 Z M723.120567,145.262321 L723.120567,116.446741 L694.238374,116.446741 L636.473988,116.446741 L636.473988,30 L577.092199,30 L577.092199,320 L694.238374,320 L723.120567,320 L723.120567,290.953895 L723.120567,145.262321 Z M809.503546,89.6453901 L809.503546,30 L749.858156,30 L749.858156,89.6453901 L809.503546,89.6453901 Z M809.503546,320 L809.503546,116.382979 L749.858156,116.382979 L749.858156,320 L809.503546,320 Z M836.241135,320 L865.144991,320 L953.475177,320 L953.475177,260.519802 L895.667464,260.519802 L895.667464,175.679831 L953.475177,175.679831 L953.475177,116.430177 L895.667464,116.430177 L895.667464,58.7943262 L836.241135,58.7943262 L836.241135,290.951531 L836.241135,320 Z" id="firebit" fill="#FF7043" fill-rule="nonzero"></path>
    </g>
</svg>