<svg id="visual" viewBox="0 0 100 2160" width="100" height="2160" xmlns="http://www.w3.org/2000/svg" xmlns:xlink="http://www.w3.org/1999/xlink" version="1.1"><path d="M52 0L72 0L72 309L54 309L54 617L61 617L61 926L58 926L58 1234L63 1234L63 1543L55 1543L55 1851L67 1851L67 2160L0 2160L0 1851L0 1851L0 1543L0 1543L0 1234L0 1234L0 926L0 926L0 617L0 617L0 309L0 309L0 0L0 0Z" fill="#eff0f3"></path><path d="M47 0L38 0L38 309L56 309L56 617L56 617L56 926L45 926L45 1234L48 1234L48 1543L51 1543L51 1851L47 1851L47 2160L0 2160L0 1851L0 1851L0 1543L0 1543L0 1234L0 1234L0 926L0 926L0 617L0 617L0 309L0 309L0 0L0 0Z" fill="#abb2bd"></path><path d="M41 0L40 0L40 309L30 309L30 617L32 617L32 926L27 926L27 1234L36 1234L36 1543L30 1543L30 1851L40 1851L40 2160L0 2160L0 1851L0 1851L0 1543L0 1543L0 1234L0 1234L0 926L0 926L0 617L0 617L0 309L0 309L0 0L0 0Z" fill="#677989"></path><path d="M23 0L13 0L13 309L17 309L17 617L17 617L17 926L13 926L13 1234L17 1234L17 1543L24 1543L24 1851L18 1851L18 2160L0 2160L0 1851L0 1851L0 1543L0 1543L0 1234L0 1234L0 926L0 926L0 617L0 617L0 309L0 309L0 0L0 0Z" fill="#214557"></path></svg>