<svg id="visual" viewBox="0 0 100 2160" width="100" height="2160" xmlns="http://www.w3.org/2000/svg" xmlns:xlink="http://www.w3.org/1999/xlink" version="1.1">
  <path d="M55 0L68 0L68 309L61 309L61 617L65 617L65 926L51 926L51 1234L48 1234L48 1543L67 1543L67 1851L69 1851L69 2160L0 2160L0 1851L0 1851L0 1543L0 1543L0 1234L0 1234L0 926L0 926L0 617L0 617L0 309L0 309L0 0L0 0Z" fill="#21455760"></path>
  <path d="M44 0L54 0L54 309L40 309L40 617L50 617L50 926L38 926L38 1234L40 1234L40 1543L54 1543L54 1851L38 1851L38 2160L0 2160L0 1851L0 1851L0 1543L0 1543L0 1234L0 1234L0 926L0 926L0 617L0 617L0 309L0 309L0 0L0 0Z" fill="#21455760"></path>
  <path d="M24 0L36 0L36 309L31 309L31 617L30 617L30 926L28 926L28 1234L39 1234L39 1543L29 1543L29 1851L22 1851L22 2160L0 2160L0 1851L0 1851L0 1543L0 1543L0 1234L0 1234L0 926L0 926L0 617L0 617L0 309L0 309L0 0L0 0Z" fill="#21455760"></path>
  <path d="M12 0L23 0L23 309L14 309L14 617L12 617L12 926L16 926L16 1234L19 1234L19 1543L15 1543L15 1851L23 1851L23 2160L0 2160L0 1851L0 1851L0 1543L0 1543L0 1234L0 1234L0 926L0 926L0 617L0 617L0 309L0 309L0 0L0 0Z" fill="#214557"></path>
</svg>